<svg width="43" height="43" viewBox="0 0 43 43" fill="none" xmlns="http://www.w3.org/2000/svg">
<path fill-rule="evenodd" clip-rule="evenodd" d="M42.0219 21.5698C42.0219 33.0597 32.7077 42.3739 21.2178 42.3739C9.72806 42.3739 0.413757 33.0597 0.413757 21.5698C0.413757 10.08 9.72806 0.765686 21.2178 0.765686C32.7077 0.765686 42.0219 10.08 42.0219 21.5698ZM15.3226 29.8487H11.2851C10.4367 29.8487 10.0176 29.8487 9.76208 29.6853C9.48608 29.5063 9.31743 29.2099 9.29699 28.8828C9.28164 28.5814 9.49121 28.2133 9.91028 27.4773L19.8793 9.90549C20.3035 9.15932 20.5182 8.78623 20.789 8.64824C21.0804 8.50004 21.4279 8.50004 21.7192 8.64824C21.9901 8.78623 22.2047 9.15932 22.6289 9.90549L24.6784 13.483L24.6888 13.5013C25.147 14.3018 25.3793 14.7077 25.4807 15.1338C25.5932 15.5989 25.5932 16.0895 25.4807 16.5546C25.3785 16.9839 25.1485 17.3927 24.6835 18.2054L19.4469 27.462L19.4334 27.4857C18.9722 28.2928 18.7385 28.7019 18.4146 29.0105C18.0619 29.3479 17.6377 29.5931 17.1727 29.7313C16.7485 29.8487 16.2732 29.8487 15.3226 29.8487ZM25.5186 29.8487H31.3038C32.1573 29.8487 32.5867 29.8487 32.8424 29.6803C33.1183 29.5014 33.292 29.1997 33.3075 28.8728C33.3222 28.5811 33.1172 28.2274 32.7155 27.5342C32.7016 27.5106 32.6878 27.4865 32.6737 27.4621L29.7758 22.5047L29.7428 22.4489C29.3356 21.7603 29.13 21.4125 28.866 21.2781C28.5749 21.1299 28.2322 21.1299 27.941 21.2781C27.6753 21.4161 27.4606 21.779 27.0364 22.5098L24.1489 27.4672L24.139 27.4843C23.7163 28.214 23.505 28.5786 23.5203 28.8778C23.5407 29.205 23.7093 29.5063 23.9853 29.6853C24.2358 29.8487 24.6651 29.8487 25.5186 29.8487Z" fill="white"/>
</svg>
